<?xml version="1.0" standalone="yes"?>
<svg xmlns="http://www.w3.org/2000/svg" width="637" height="671">
<path style="fill:#ffffff; stroke:none;" d="M0 0L0 671L637 671L637 0L0 0z"/>
<path style="fill:#000000; stroke:none;" d="M161 217C150.6 217.007 143.101 223.647 133 224.826C120.413 226.296 109.554 230.034 98 235.138C79.9204 243.125 61.5367 255.537 51.1296 273C47.6515 278.836 45.5623 286.228 45.2091 293C45.0313 296.41 45.981 299.596 45.2353 303C44.395 306.836 42.3665 310.23 41.3997 314C38.2921 326.119 36.8609 339.496 37.0185 352C37.0926 357.876 38.9856 363.271 39.7909 369C42.0077 384.771 43.4878 401.109 44.4861 417C45.2524 429.197 42.04 440.958 41.1844 453C40.483 462.872 41.8903 474.123 42.8302 484C43.7324 493.48 42.6069 503.996 52.0039 509.647C60.1107 514.523 76.0897 515.566 82.2971 506.942C85.5242 502.459 85.1991 496.253 84.9606 491C84.7313 485.947 83.1678 480.999 82.4275 476C81.5969 470.391 81.5666 464.511 80.2508 459C78.6801 452.421 75.9039 445.72 75.1736 439C74.4009 431.889 76.2959 425.835 77.7145 419C80.9597 403.365 84.6121 388.408 93.6713 375C100.481 364.921 113.355 348.656 127 350.11C143.036 351.818 144.91 370.406 148.75 382C150.352 386.836 153.764 390.931 154.671 396C155.551 400.924 154.672 406.036 155.171 411C155.859 417.859 159.261 424.174 159.896 431C161.03 443.192 159.714 455.759 160.015 468C160.244 477.35 161.93 487.722 163.301 497C164.683 506.353 169.456 514.946 171.585 524C173.573 532.457 171.66 542.344 172.039 551C172.273 556.333 174.057 561.649 173.346 567C171.54 580.588 167.317 594.158 167.34 608C167.346 612 168.496 616.032 168.95 620C169.681 626.401 171.843 637.221 178.13 640.567C187.754 645.69 204.689 649.076 214.91 643.683C218.53 641.773 220.808 637.914 224.003 635.414C230.832 630.072 236.262 625.647 235.781 616C235.499 610.354 231.065 605.993 228.955 601C227.312 597.112 226.937 592.872 225.204 589C221.551 580.835 216.039 572.793 213.973 564C213.278 561.042 214.147 557.997 213.621 555C209.623 532.207 210.272 509.172 209.996 486C209.94 481.309 208.725 476.694 209.171 472C209.654 466.926 211.539 462.081 211.91 457C212.233 452.573 210.508 446.853 213.473 443.099C218.111 437.226 231.402 442.918 238 442.996C246.766 443.1 255.318 442.858 264 441.573C269.999 440.684 275.954 438.611 282 438.186C286.382 437.878 289.803 440.2 294 440.783C298.043 441.345 302.208 440.284 306 439C306 447.361 307.326 455.658 306.961 464C306.498 474.567 304.835 485.455 303.83 496C303.105 503.609 300.297 511.484 300.073 519C299.953 522.993 302.83 526.183 302.691 530C302.605 532.367 301.353 534.619 301.108 537C300.029 547.488 299.269 561.591 304.309 571C310.003 581.629 317.629 588.305 327 595.661C331.978 599.569 336.431 603.371 343 603.907C349.812 604.462 352.918 601.055 359 599.433C366.881 597.331 376.414 599.956 380.103 589.999C382.679 583.043 376.06 579.049 372.702 574C369.206 568.743 367.535 562.39 363.968 557.015C359.375 550.093 352.941 544.434 350.628 536C349.321 531.235 353.383 526.876 352.569 522C351.255 514.121 346.657 507.281 346.09 499C344.603 477.286 351.307 455.426 353 434C356.826 433.835 360.374 433.227 364 432C365.724 453.105 376.751 474.762 386.861 493C391.114 500.671 395.082 509.048 402.004 514.726C411.971 522.903 423.857 525.568 435 531.231C447.328 537.495 457.049 543.571 471 545.285C477.599 546.095 483.437 545.327 490 545.039C500.045 544.599 508.567 545.484 518 541.23C521.315 539.735 526.83 538.78 529.012 535.697C531.657 531.961 532.751 525.408 533.873 521C537.304 507.514 539 493.911 539 480C539 455.324 532.478 431.093 527.55 407C526.305 400.913 524.049 395.211 523.286 389C521.058 370.868 523.721 352.766 527.51 335C528.761 329.136 529.949 322.499 532.363 317C537.83 304.546 548.651 292.635 557.015 282C560.821 277.16 567.998 273.508 570.486 267.985C573.022 262.354 572 255.007 572 249C582.794 251.793 597.247 249.142 602.972 237.985C604.238 235.519 603.889 232.657 604.325 230C605.039 225.645 606.273 221.303 607.255 217C610.234 203.938 607.424 188.175 606.17 175C605.192 164.73 605.81 154.294 604.83 144C603.657 131.676 601.44 119.382 600.989 107C600.572 95.5234 599.182 83.2036 596.651 72C595.567 67.2042 594.67 61.7665 590.786 58.3179C586.932 54.8956 581.619 56.162 577 56.7145C567.607 57.8378 559.294 58.5637 551 63.6636C547.596 65.7563 541.438 72.156 537.089 70.8156C532.304 69.3403 528.002 62.4108 524 59.4182C520.665 56.9244 516.519 56.3981 513.089 54.1605C506.311 49.7379 500.503 44.582 493 41.054C481.71 35.7454 468.083 36.4853 456 34.7006C450.902 33.9477 446.075 31.9766 441 31.1451C432.322 29.7233 423.649 29.8644 415 28.8156C408.374 28.012 402.886 25.5855 396 26.0903C383.929 26.9751 371.72 32.7139 360 35.625C354.071 37.0976 347.552 36.2882 342 38.9961C335.999 41.9227 331.088 46.8257 325 49.5833C321.185 51.3112 316.898 51.3751 313 53.0046C309.595 54.4282 304.716 58.4694 301.09 58.5432C298.418 58.5976 296.59 55.7037 294.91 54.0347C291.92 51.0632 288.61 48.7562 285 46.6042C278.588 42.7816 271.925 41.0022 265 38.4553C261.546 37.1848 258.493 35.0003 255 33.8495C249.925 32.1775 244.273 32.1996 239 31.9606C233.662 31.7187 228.979 30.4689 224.004 33.2786C218.879 36.1725 216.893 41.3342 213.794 46C209.028 53.1755 204.55 59.8745 201.468 68C199.753 72.521 199.533 77.4319 197.91 82C193.929 93.21 187.969 103.528 184.569 115C182.221 122.926 182.689 131.049 179.996 139C177.708 145.756 173.17 151.39 170.818 158C169.04 162.996 170.25 168.794 169.115 174C166.083 187.906 161.296 202.729 161 217z"/>
<path style="fill:#ffffff; stroke:none;" d="M179 236C185.183 224.22 184.631 210.669 187.424 198C193.647 169.78 200.436 142.104 215.312 117C218.842 111.044 223.319 105.023 228.09 100.005C229.637 98.3788 231.601 96.0012 233.961 95.6165C237.328 95.0676 240.789 99.8782 242.845 101.95C250.318 109.482 258.418 117.784 259 129C253.62 122.763 248.654 116.511 242.015 111.576C240.04 110.109 237.461 107.101 234.87 106.882C230.847 106.542 227.683 113.067 225.59 115.714C218.98 124.076 212.91 135.591 210.576 146C209.862 149.189 208.565 152.745 209.603 156C210.563 159.008 213.012 161.46 214.792 164C219.243 170.354 223.812 176.74 231 180.312C234.163 181.884 237.844 181.717 240.961 183.317C244.456 185.112 246.324 188.919 250.015 190.411C253.501 191.82 257.453 191.948 261 193.388C263.999 194.606 266.249 196.685 268.999 198.304C271.431 199.736 274.212 200.2 275.397 203.073C277.365 207.848 276.684 214.839 277.614 220C280.993 238.742 282.533 261.095 291.904 278C296.241 285.823 301.261 295.287 307.184 301.999C313.399 309.041 320.995 314.36 326.649 322C331.853 329.033 334.77 337.656 339.544 345C345.601 354.318 353.053 362.129 356.279 373C358.129 379.233 358.385 385.714 359.899 392C362.125 401.241 366.46 409.793 368.845 419C372.026 431.281 373.353 443.843 377.359 456C379.752 463.261 383.669 470.155 387.034 477C392.028 487.158 396.425 499.63 404.616 507.726C411.671 514.7 422.614 519.278 432 522C429.348 507.717 434.424 494.733 449 489.005C453.468 487.25 458.431 488.228 463 486.535C473.213 482.753 481.557 475.854 492 472.721C498.643 470.729 503.546 472.829 510 472.302C517.347 471.701 524.651 468.949 532 468C527.475 449.004 524.364 429.253 520.739 410C518.255 396.805 515.101 384.612 515.005 371C514.946 362.749 517.08 355.029 518.537 347C520.367 336.918 521.292 326.804 524.598 317C529.18 303.415 542.903 294.16 548 281C537.524 272.996 534.05 260.744 525.046 251.87C523.327 250.175 515.969 244.519 519.466 241.751C522.23 239.562 527.492 244.839 530 246C534.779 239.658 539.903 233.706 546 228.591C548.327 226.639 550.961 223.926 554 223.157C557.473 222.278 559.846 225.202 563 225.977C565.695 226.639 568.325 225.939 571 226.968C572.873 227.689 576.178 230.325 577.683 227.623C578.84 225.547 577.642 222.137 577.196 220C576.247 215.453 574.901 210.13 572.102 206.325C569.801 203.198 566.113 201.578 564.318 197.985C562.344 194.035 563.147 189.253 562.961 185C562.754 180.283 561.465 175.699 561.086 171C559.602 152.623 559.086 131.621 553.25 114C551.364 108.306 547.349 104.174 544.553 99C538.38 87.5748 533.305 75.8844 522.996 67.2245C518.821 63.7176 513.437 63.2628 509.015 60.3017C502.591 56.0011 497.302 50.7225 490 47.598C477.742 42.3526 463.749 43.9867 451 41.1119C438.148 38.2136 425.972 37.3887 413 35.8156C407.072 35.0966 402.161 32.4222 396 33.3002C384.511 34.9373 373.258 39.8285 362 42.625C356.071 44.0976 349.552 43.2882 344 45.9961C337.999 48.9227 333.088 53.8254 327 56.5833C322.272 58.725 316.872 59.2892 312 61.3557C308.534 62.8257 304.785 66.424 301 66.7477C295.003 67.2605 288.711 57.3177 284 54.2438C277.387 49.929 270.295 48.1382 263 45.4553C254.958 42.4975 248.862 39.2318 240 39.0146C236.146 38.9202 230.594 38.0932 227.105 40.0278C223.476 42.0398 221.996 46.7679 219.7 50C214.972 56.6537 210.754 63.1768 208.104 71C206.783 74.9025 206.533 79.0721 205.251 83C201.456 94.6266 195.066 105.201 191.569 117C189.118 125.272 189.554 133.707 186.655 142C184.347 148.602 179.321 154.353 177.499 161C176.526 164.55 177.215 168.374 176.826 172C176.247 177.408 174.514 182.753 173.155 188C171.874 192.947 171.482 197.974 170.704 203C168.954 214.304 164.341 230.789 179 236M552 99C561.463 94.5867 569.556 85.5779 578.001 79.3796C579.477 78.2964 587.219 73.5116 586.369 79.0594C585.912 82.0421 582.145 84.1924 580 85.8843C576.592 88.5723 573.578 91.8459 570.004 94.3017C566.138 96.9583 559.108 99.9112 558.132 105.17C557.549 108.309 560.093 112.057 560.957 115C562.427 120.006 563.159 125.818 563.841 131C565.991 147.339 567.235 163.679 569.572 180C570.213 184.476 569.132 189.574 570.434 193.896C571.385 197.056 574.477 198.708 576.522 201.104C578.765 203.733 580.154 206.832 581.455 210C585.792 220.559 588.851 236.132 573 237L573 242C581.12 242.168 590.741 244.028 595.972 235.532C597.603 232.883 597.065 228.98 597.745 226C600.467 214.07 600.922 204.154 600.089 192C599.063 177.013 598.938 161.989 597.911 147C597.107 135.283 594.911 123.716 594.089 112C593.362 101.62 592.16 91.3432 590.949 81C590.413 76.4214 589.786 69.0744 586.911 65.3187C584.358 61.9857 579.528 63.7346 576 63.9753C566.334 64.6348 558.041 67.1485 550 72.6512C547.893 74.0933 544.272 75.768 543.241 78.26C542.277 80.5923 543.93 83.0675 545.066 85C547.763 89.5867 549.622 94.2885 552 99z"/>
<path style="fill:#000000; stroke:none;" d="M314 147L314 149C319.275 150.332 323.798 148.193 329 147.324C336.307 146.104 343.769 145.748 351 143.957C356.413 142.616 361.477 139.799 367 138.815C370.681 138.159 373.486 140.203 377 140.776C380.984 141.426 385.119 140.924 389 140C388.883 142.73 388.501 145.314 388 148L389 149C392.716 146.951 395.336 139.996 390.682 137.042C387.71 135.156 383.287 137.141 380 136.877C376.476 136.594 373.509 134.438 370 134.173C362.879 133.635 355.732 138.289 349 139.957C337.431 142.822 325.077 142.295 314 147M517 157L519 157C520.578 153.859 521.147 149.077 523.703 146.6C525.717 144.647 529.352 144.427 532 144.17C538.223 143.565 543.965 144.043 550 142L550 140C545.826 138.801 542.257 139.774 538 139.961C527.873 140.405 519.486 139.308 516.913 150.995C516.417 153.249 516.527 154.79 517 157z"/>
<path style="fill:#ffffff; stroke:none;" d="M204 159C198.755 177.62 194.422 196.837 192 216C202.722 216 213.29 214.996 224 215C230.104 215.002 235.971 216.638 242 216.737C246.109 216.804 249.97 214.881 254 214.3C259.005 213.579 263.986 213.931 269 213L269 205C264.977 203.907 261.956 201.08 258 199.8C254.407 198.638 250.379 198.852 247.001 197.012C243.535 195.124 241.453 191.317 237.83 189.738C231.331 186.907 224.701 187.239 219.171 181.867C215.446 178.249 211.76 173.528 209.213 169C207.265 165.538 206.776 161.925 204 159z"/>
<path style="fill:#000000; stroke:none;" d="M516 170C511.138 187.501 518.301 205.221 515 223C521.706 224.025 520 215.671 520 211C520 202.921 518.001 194.904 518.083 187C518.149 180.548 520.421 176.468 518 170L516 170M402 171C399.381 177.574 403.362 182.49 404.535 189C406.336 198.985 406.379 209.863 407.09 220C407.447 225.102 407.174 231.339 412 234L413 233C409.136 212.188 410.485 191.329 404 171L402 171M471 187C469.097 193.44 470.821 199.482 470.946 206C471.056 211.747 468.944 217.232 469.019 223C469.089 228.433 471.215 233.541 470.907 239C470.567 245.009 469.303 250.985 469.039 257C468.433 270.854 470.359 284.252 470.961 298C471.636 313.424 471.366 328.613 472.83 344C473.684 352.973 473.97 361.996 474.83 371C475.254 375.438 474.725 379.687 476 384L478 384C480.611 375.167 478.021 365.913 477.17 357C476.041 345.184 475.559 332.867 475.039 321C474.675 312.678 475.325 304.322 474.961 296C474.431 283.917 472.716 272.17 473.015 260C473.211 251.975 475.173 244.05 474.985 236C474.882 231.566 473.258 227.398 473.13 223C473.011 218.935 474.428 215.016 474.829 211C475.562 203.673 475.078 194.029 473 187L471 187M407 263C410.155 264.463 415.005 263.983 412.762 259.089C410.932 255.094 405.823 252.597 403.209 248.985C396.828 240.169 392.509 229.928 384.561 222.228C378.058 215.929 363.994 219.104 356 220.611C347.526 222.209 339.121 224.648 331 227.541C328.106 228.572 323.561 229.833 321.66 232.418C319.762 235 321.796 238.191 321.972 241C322.369 247.313 319.092 254.721 321.603 260.896C324.104 267.045 335.246 271.703 341 274.124C345.831 276.157 350.979 276.882 356 278.253C359.561 279.225 362.455 281.662 366 282.571C381.912 286.65 405.309 282.222 407 263z"/>
<path style="fill:#ffffff; stroke:none;" d="M162 224C152.151 224.034 144.651 230.699 135 231.826C123.289 233.194 112.707 236.382 102 241.36C85.1413 249.199 68.4139 258.609 58.2454 275C52.1765 284.783 54.6232 293.613 52.4853 304C51.5603 308.494 49.3251 312.554 48.3002 317C45.7216 328.186 44.412 339.534 44.1289 351C43.9844 356.851 46.3374 362.282 46.8966 368C48.4937 384.33 50.6599 400.646 51.8156 417C52.6384 428.644 49.6863 440.482 48.6798 452C47.8343 461.676 48.912 472.351 49.8302 482C50.4656 488.676 49.0028 498.359 55.2245 502.95C62.296 508.168 76.9895 507.629 77.9059 496.999C78.3801 491.498 76.8236 486.359 75.9205 481C74.8632 474.726 74.7668 468.214 73.4853 462C72.1089 455.325 69.0227 448.728 68.1852 442C67.0954 433.246 68.9626 425.44 70.7145 417C74.7485 397.565 79.896 379.272 93.2863 364C102.846 353.097 113.303 341.38 129 343.109C135.13 343.784 139.856 348.862 143.996 353.004C152.244 361.255 152.294 368.503 155.44 379C156.818 383.598 159.831 387.436 161.2 392C162.641 396.805 161.821 402.06 162.039 407C162.377 414.637 166.197 421.487 166.896 429C168.03 441.192 166.714 453.759 167.015 466C167.244 475.318 168.874 485.765 170.304 495C171.823 504.811 178.075 514.286 178.906 524C179.614 532.279 178.676 540.7 179.039 549C179.287 554.653 181.243 560.333 180.815 566C180.119 575.222 175.252 583.705 178 593C175.161 595.389 175.103 599.409 175.015 603C174.824 610.78 176.028 618.311 177 626L179 626C180.153 617.439 180.975 608.406 183 600L185 600C186.543 606.556 185.43 614.478 183.87 621C183.124 624.117 180.456 629.418 181.697 632.567C182.521 634.658 185.134 634.929 187.005 635.485C191.476 636.815 195.274 638.755 200 639C200.597 633.837 203.09 628.071 202.849 623C202.696 619.789 200.858 617.104 200.274 614C199.456 609.652 199.511 604.376 200 600L202 600C203.779 604.852 203.464 609.059 204.299 614C204.885 617.473 206.985 620.361 206.851 624C206.673 628.827 204.738 634.133 204 639C212.473 636.883 216.675 631.234 224 627C221.541 619.44 216.798 609.973 218 602L220 602C222.263 608.956 224.114 616.295 227 623C230.36 615.497 225.502 610.536 222.402 604C220.585 600.17 220.265 595.899 218.652 592C215.141 583.513 210.213 575.658 207.046 567C205.785 563.553 206.778 560.502 206.455 557C205.71 548.906 204.321 541.222 203.961 533C203.304 517.996 203.175 503.068 202.996 488C202.897 479.708 201.461 472.293 203.211 464C205.311 454.044 202.125 443.728 210.043 436.059C215.968 430.321 220.958 433.527 228 434.715C235.563 435.99 243.335 436.435 251 435.91C261.44 435.196 271.621 431.445 282 431.04C287.329 430.832 291.879 433.77 297 433.606C303.381 433.401 309.644 430.806 316 430.171C331.656 428.605 347.626 428.977 363 425C360.78 414.275 355.919 404.537 353.156 394C350.792 384.985 350.797 375.632 346.812 367C343.275 359.337 337.118 353.023 332.544 346C327.972 338.98 325.128 330.857 320.377 324C314.567 315.613 305.816 309.719 299.21 302C295.563 297.739 293.715 292.754 290.93 288C289.088 284.856 286.533 282.239 284.824 279C275.147 260.66 276.497 239.186 270 220C264.986 220.931 260.005 220.579 255 221.3C250.616 221.932 246.483 223.961 242 223.87C237.297 223.775 232.708 222.246 228 222.039C220.56 221.713 213.379 222.637 206 222.961C201.931 223.139 197.075 222.181 193.133 223.318C185.174 225.614 190.087 242.251 178.996 242.743C170.544 243.118 163.273 231.135 162 224z"/>
<path style="fill:#000000; stroke:none;" d="M487 227L486 228C487.186 236.31 484.39 244.775 483.282 253C481.249 268.094 480.05 282.858 480.907 298C481.182 302.865 479.629 307.228 481 312L483 312C485.93 303.346 483.885 295.767 484.054 287C484.309 273.795 486.403 260.022 488.586 247C489.629 240.783 493.71 230.7 487 227z"/>
<path style="fill:#ffffff; stroke:none;" d="M567 233L568 234L567 233M333 234L329 236C331.041 246.459 323.553 256.304 335 263C333.972 258.02 332.269 253.107 332.039 248C331.828 243.294 333.43 238.524 333 234M392 246C391.983 252.303 391.191 258.383 388.095 264C385.743 268.268 382.235 271.668 380 276C384.387 275.654 390.154 275.553 393.956 273.142C405.526 265.804 399.568 253.276 392 246z"/>
<path style="fill:#000000; stroke:none;" d="M444 258C440.912 268.471 446.552 282.683 449.127 293C453.682 311.253 457.778 329.693 462.116 348C464.175 356.69 464.805 366.007 469 374L471 374C471.886 369.747 470.361 366.175 469.425 362C467.786 354.683 466.251 347.327 464.662 340C462.473 329.908 459.103 320.125 457.003 310C453.456 292.902 451.061 274.655 446 258L444 258z"/>
<path style="fill:#ffffff; stroke:none;" d="M564 259L564 262C564.696 260.446 564.696 260.554 564 259M563 263L562 267C563.303 265.332 563.553 265.008 563 263z"/>
<path style="fill:#000000; stroke:none;" d="M98 286C97.1362 290.159 98.8204 292.962 99.6211 297C100.624 302.059 101.295 307.871 101.871 313C103.192 324.769 99.644 334.838 97 346L98 347C103.447 344.077 104.315 337.695 105.246 332C106.812 322.418 105.798 313.402 104.259 304C103.165 297.315 103.312 292.221 100 286L98 286M201 392L202 393C221.079 384.509 235.153 370.902 257 369.896C262.89 369.625 268.341 368.089 274 370.769C279.937 373.58 283.011 379.282 287.184 383.999C292.743 390.283 300.119 396.017 308 399L309 398C305.973 391.806 298.969 389.361 294.015 384.826C287.989 379.311 284.35 371.373 277 367.279C270.736 363.789 263.736 365.367 257 365.621C254.075 365.731 251.033 364.117 248.17 364.769C246.242 365.207 244.744 366.733 242.91 367.431C235.79 370.143 228.728 372.167 222 376.001C214.575 380.232 204.805 383.91 201 392M225 424L226 425C232.378 422.547 238.185 414.646 245 414.028C248.678 413.694 252.278 415.842 256 415.816C262.586 415.77 268.203 414.057 275 415.042C282.862 416.181 290.011 419.361 298 417L298 415C288.326 412.134 276.104 409.971 266 410.039C262.581 410.062 259.374 411.315 256 411.375C251.911 411.447 248.086 408.862 244 409.372C237.523 410.181 227.755 418.349 225 424z"/>
<path style="fill:#ffffff; stroke:none;" d="M350 596C347.5 586.66 341.701 578.89 338 570L339 569C345.163 573.837 351.252 585.377 353 593C357.445 592.175 372.382 593.622 372.669 586.899C372.839 582.911 367.22 579.269 365.413 575.985C363.273 572.097 362.407 567.783 359.981 564.004C354.334 555.207 346.973 548.309 343.585 538C341.809 532.597 345.597 528.183 345.034 523C344.267 515.937 339.904 509.335 339.171 502C338.218 492.477 339.914 482.469 340.83 473C342.079 460.092 342.879 447.668 346 435C338.249 435.612 330.817 436.987 323 437C320.327 437.004 315.946 436.371 314.028 438.742C312.253 440.936 312.923 445.41 313.17 448C313.802 454.65 314.47 461.3 313.83 468C312.621 480.651 311.36 493.389 309.845 506C309.336 510.237 307.507 514.798 307.473 519C307.441 522.968 310.842 526.01 310.593 530C310.42 532.785 308.674 535.248 308.224 538C307.093 544.92 306.908 555.145 308.39 562C311.016 574.141 321.615 583.103 331 590.127C336.959 594.586 342.399 598.226 350 596z"/>
</svg>
